<svg width="60" height="60" viewBox="0 0 60 60" fill="none" xmlns="http://www.w3.org/2000/svg">
<rect width="60" height="60" rx="10" fill="url(#paint0_linear_3_47)"/>
<path fill-rule="evenodd" clip-rule="evenodd" d="M49.8049 20.0531L52.9282 25.6752C53.6285 26.9358 53.9999 28.3919 54 29.8798V35.8827C54 36.8299 53.3202 37.6 52.4801 37.6H47.8115C47.6138 40.1615 45.7362 42.1786 43.4206 42.1786C41.105 42.1786 39.2257 40.1615 39.0297 37.6H28.5965L31.8205 29.7646L33.5377 33.9632L33.5377 33.9633C33.7992 34.6024 34.294 35.121 34.9255 35.4092C35.4905 35.667 36.1855 35.8919 36.896 35.8031C37.7632 35.6948 38.4116 35.1526 38.7247 34.3917L42.8151 24.4506L43.7414 27.1657C44.0089 27.9498 44.8613 28.3686 45.6454 28.1011C46.4294 27.8336 46.8482 26.9811 46.5807 26.1971L44.7418 20.8068C44.3278 19.5933 43.1375 19.2156 42.3352 19.0885C41.8966 19.0191 41.4478 19.0588 41.0283 19.2043L41.0282 19.2043L35.9542 20.963C35.1714 21.2343 34.7568 22.0888 35.0281 22.8715C35.2994 23.6543 36.1539 24.0689 36.9366 23.7976L40.3227 22.6239L36.2196 32.5957L34.3304 27.9766C34.0194 27.2161 33.3738 26.6724 32.5079 26.5603C31.7977 26.4683 31.1019 26.6902 30.5358 26.9457C29.9026 27.2317 29.4057 27.7492 29.1426 28.3885L29.1426 28.3887L25.3524 37.6H23.8549C23.6589 40.1615 21.7795 42.1786 19.464 42.1786C17.1484 42.1786 15.269 40.1615 15.0731 37.6H8.51823C7.67985 37.6 7 36.8299 7 35.8827V31.4854C7 29.5677 8.16894 27.9023 9.82165 27.4687L19.7195 24.8764L23.8702 20.0887C25.5843 18.113 27.9288 17 30.3739 17H44.9198C46.9032 17 48.7485 18.1526 49.8049 20.0531Z" fill="white"/>
<defs>
<linearGradient id="paint0_linear_3_47" x1="0" y1="0" x2="60" y2="60" gradientUnits="userSpaceOnUse">
<stop stop-color="#FFB802"/>
<stop offset="1" stop-color="#FF7A00"/>
</linearGradient>
</defs>
</svg>
