<svg width="60" height="40" viewBox="0 0 60 40" fill="none" xmlns="http://www.w3.org/2000/svg">
<path fill-rule="evenodd" clip-rule="evenodd" d="M54.4017 7.8802L58.3711 15.0255C59.2612 16.6276 59.7332 18.4782 59.7333 20.3693V27.9985C59.7333 29.2023 58.8693 30.181 57.8017 30.181H51.8683C51.617 33.4365 49.2307 36 46.2878 36C43.3448 36 40.9563 33.4365 40.7073 30.181H27.008L31.2917 19.7701L31.2918 19.77C31.2977 19.7554 31.3071 19.7479 31.314 19.7448C31.4788 19.6704 31.6146 19.6197 31.7235 19.5861L34.1034 25.4051L34.1035 25.4052C34.3969 26.1224 34.952 26.7039 35.6599 27.0269C36.3539 27.3436 37.1538 27.5929 37.9451 27.494C38.8931 27.3756 39.5981 26.7889 39.9437 25.9489L45.5537 12.3148L47.08 16.7887C47.3475 17.5727 48.2 17.9915 48.984 17.724C49.7681 17.4565 50.1868 16.6041 49.9193 15.82L47.5822 8.96936C47.1338 7.65511 45.8333 7.21225 44.8447 7.05573C44.3533 6.97793 43.8505 7.02246 43.3804 7.18543L43.3802 7.18547L36.9316 9.42067C36.1488 9.69198 35.7342 10.5465 36.0055 11.3292C36.2768 12.1119 37.1313 12.5265 37.914 12.2552L43.0695 10.4683L38.0598 22.6433L36.8801 24.2693L34.3586 18.1042C34.0152 17.2645 33.3131 16.6759 32.3664 16.5534C31.5754 16.451 30.7746 16.6968 30.0794 17.0106C29.3698 17.3311 28.8124 17.9113 28.5173 18.6287L23.7639 30.181H21.4212C21.1722 33.4365 18.7836 36 15.8407 36C12.8978 36 10.5092 33.4365 10.2602 30.181H1.92955C0.864032 30.181 0 29.2023 0 27.9985V22.4098C0 19.9726 1.48563 17.856 3.58609 17.3049L16.1655 14.0102L21.4407 7.92547C23.6192 5.41459 26.5989 4 29.7064 4H48.1932C50.7139 4 53.0591 5.46487 54.4017 7.8802ZM38.0597 22.6436L45.5537 12.3148L38.0598 22.6433L38.0597 22.6436ZM38.0597 22.6436L36.8802 24.2694C36.8867 24.2852 36.8972 24.294 36.9053 24.2977C37.0693 24.3725 37.2045 24.4237 37.3132 24.4578L38.0597 22.6436Z" fill="url(#paint0_linear_3_43)"/>
<defs>
<linearGradient id="paint0_linear_3_43" x1="9.6" y1="5.06667" x2="63.4667" y2="36" gradientUnits="userSpaceOnUse">
<stop stop-color="#FFB802"/>
<stop offset="1" stop-color="#FF7A00"/>
</linearGradient>
</defs>
</svg>
