<svg width="256" height="40" viewBox="0 0 256 40" fill="none" xmlns="http://www.w3.org/2000/svg">
<path d="M84.501 6.785V10.373H80.177V23H75.669V10.373H71.391V6.785H84.501ZM90.6769 12.374C91.1829 11.638 91.7962 11.0553 92.5169 10.626C93.2375 10.1967 94.0119 9.982 94.8399 9.982V14.789H93.5749C92.5935 14.789 91.8652 14.9807 91.3899 15.364C90.9145 15.7473 90.6769 16.4143 90.6769 17.365V23H86.1689V10.097H90.6769V12.374ZM108.784 16.399C108.784 16.7517 108.761 17.1043 108.715 17.457H100.182C100.228 18.1623 100.42 18.6913 100.757 19.044C101.11 19.3813 101.554 19.55 102.091 19.55C102.842 19.55 103.379 19.2127 103.701 18.538H108.508C108.309 19.4273 107.918 20.2247 107.335 20.93C106.768 21.62 106.047 22.1643 105.173 22.563C104.299 22.9617 103.333 23.161 102.275 23.161C101.002 23.161 99.8676 22.8927 98.871 22.356C97.8896 21.8193 97.1153 21.0527 96.548 20.056C95.996 19.0593 95.72 17.8863 95.72 16.537C95.72 15.1877 95.996 14.0223 96.548 13.041C97.1 12.0443 97.8666 11.2777 98.848 10.741C99.8446 10.2043 100.987 9.936 102.275 9.936C103.548 9.936 104.675 10.1967 105.656 10.718C106.637 11.2393 107.404 11.9907 107.956 12.972C108.508 13.938 108.784 15.0803 108.784 16.399ZM104.184 15.272C104.184 14.72 104 14.2907 103.632 13.984C103.264 13.662 102.804 13.501 102.252 13.501C101.7 13.501 101.248 13.6543 100.895 13.961C100.542 14.2523 100.312 14.6893 100.205 15.272H104.184ZM119.07 9.982C120.557 9.982 121.738 10.4803 122.612 11.477C123.486 12.4583 123.923 13.7923 123.923 15.479V23H119.415V16.077C119.415 15.341 119.223 14.766 118.84 14.352C118.456 13.9227 117.943 13.708 117.299 13.708C116.624 13.708 116.095 13.9227 115.712 14.352C115.328 14.766 115.137 15.341 115.137 16.077V23H110.629V10.097H115.137V11.937C115.535 11.3543 116.072 10.8867 116.747 10.534C117.421 10.166 118.196 9.982 119.07 9.982ZM134.009 19.159V23H132.054C128.758 23 127.109 21.367 127.109 18.101V13.846H125.522V10.097H127.109V6.969H131.64V10.097H133.986V13.846H131.64V18.17C131.64 18.5227 131.717 18.7757 131.87 18.929C132.039 19.0823 132.315 19.159 132.698 19.159H134.009ZM138.354 8.901C137.557 8.901 136.913 8.68633 136.422 8.257C135.947 7.81233 135.709 7.26033 135.709 6.601C135.709 5.92633 135.947 5.36667 136.422 4.922C136.913 4.47733 137.557 4.255 138.354 4.255C139.136 4.255 139.765 4.47733 140.24 4.922C140.731 5.36667 140.976 5.92633 140.976 6.601C140.976 7.26033 140.731 7.81233 140.24 8.257C139.765 8.68633 139.136 8.901 138.354 8.901ZM140.585 10.097V23H136.077V10.097H140.585ZM151.593 9.982C153.081 9.982 154.261 10.4803 155.135 11.477C156.009 12.4583 156.446 13.7923 156.446 15.479V23H151.938V16.077C151.938 15.341 151.747 14.766 151.363 14.352C150.98 13.9227 150.466 13.708 149.822 13.708C149.148 13.708 148.619 13.9227 148.235 14.352C147.852 14.766 147.66 15.341 147.66 16.077V23H143.152V10.097H147.66V11.937C148.059 11.3543 148.596 10.8867 149.27 10.534C149.945 10.166 150.719 9.982 151.593 9.982ZM164.923 23.161C163.635 23.161 162.477 22.8927 161.45 22.356C160.438 21.8193 159.641 21.0527 159.058 20.056C158.475 19.0593 158.184 17.8863 158.184 16.537C158.184 15.203 158.475 14.0377 159.058 13.041C159.656 12.0443 160.461 11.2777 161.473 10.741C162.5 10.2043 163.658 9.936 164.946 9.936C166.234 9.936 167.384 10.2043 168.396 10.741C169.423 11.2777 170.228 12.0443 170.811 13.041C171.409 14.0377 171.708 15.203 171.708 16.537C171.708 17.871 171.409 19.044 170.811 20.056C170.228 21.0527 169.423 21.8193 168.396 22.356C167.369 22.8927 166.211 23.161 164.923 23.161ZM164.923 19.251C165.552 19.251 166.073 19.021 166.487 18.561C166.916 18.0857 167.131 17.411 167.131 16.537C167.131 15.663 166.916 14.996 166.487 14.536C166.073 14.076 165.559 13.846 164.946 13.846C164.333 13.846 163.819 14.076 163.405 14.536C162.991 14.996 162.784 15.663 162.784 16.537C162.784 17.4263 162.983 18.101 163.382 18.561C163.781 19.021 164.294 19.251 164.923 19.251ZM185.755 6.785V10.373H181.431V23H176.923V10.373H172.645V6.785H185.755ZM191.931 12.374C192.437 11.638 193.05 11.0553 193.771 10.626C194.491 10.1967 195.266 9.982 196.094 9.982V14.789H194.829C193.847 14.789 193.119 14.9807 192.644 15.364C192.168 15.7473 191.931 16.4143 191.931 17.365V23H187.423V10.097H191.931V12.374ZM196.974 16.537C196.974 15.203 197.212 14.0377 197.687 13.041C198.178 12.0443 198.837 11.2777 199.665 10.741C200.508 10.2043 201.444 9.936 202.471 9.936C203.36 9.936 204.127 10.1123 204.771 10.465C205.415 10.8177 205.913 11.293 206.266 11.891V10.097H210.774V23H206.266V21.206C205.913 21.804 205.407 22.2793 204.748 22.632C204.104 22.9847 203.345 23.161 202.471 23.161C201.444 23.161 200.508 22.8927 199.665 22.356C198.837 21.8193 198.178 21.0527 197.687 20.056C197.212 19.044 196.974 17.871 196.974 16.537ZM206.266 16.537C206.266 15.709 206.036 15.0573 205.576 14.582C205.131 14.1067 204.579 13.869 203.92 13.869C203.245 13.869 202.686 14.1067 202.241 14.582C201.796 15.042 201.574 15.6937 201.574 16.537C201.574 17.365 201.796 18.0243 202.241 18.515C202.686 18.9903 203.245 19.228 203.92 19.228C204.579 19.228 205.131 18.9903 205.576 18.515C206.036 18.0397 206.266 17.3803 206.266 16.537ZM220.312 13.846H218.288V23H213.757V13.846H212.354V10.097H213.757V9.982C213.757 8.326 214.24 7.061 215.206 6.187C216.187 5.29767 217.59 4.853 219.415 4.853C219.783 4.853 220.066 4.86067 220.266 4.876V8.717C220.143 8.70167 219.974 8.694 219.76 8.694C219.269 8.694 218.909 8.809 218.679 9.039C218.449 9.25367 218.318 9.60633 218.288 10.097H220.312V13.846ZM228.892 13.846H226.868V23H222.337V13.846H220.934V10.097H222.337V9.982C222.337 8.326 222.82 7.061 223.786 6.187C224.767 5.29767 226.17 4.853 227.995 4.853C228.363 4.853 228.646 4.86067 228.846 4.876V8.717C228.723 8.70167 228.554 8.694 228.34 8.694C227.849 8.694 227.489 8.809 227.259 9.039C227.029 9.25367 226.898 9.60633 226.868 10.097H228.892V13.846ZM232.78 8.901C231.983 8.901 231.339 8.68633 230.848 8.257C230.373 7.81233 230.135 7.26033 230.135 6.601C230.135 5.92633 230.373 5.36667 230.848 4.922C231.339 4.47733 231.983 4.255 232.78 4.255C233.562 4.255 234.191 4.47733 234.666 4.922C235.157 5.36667 235.402 5.92633 235.402 6.601C235.402 7.26033 235.157 7.81233 234.666 8.257C234.191 8.68633 233.562 8.901 232.78 8.901ZM235.011 10.097V23H230.503V10.097H235.011ZM236.842 16.537C236.842 15.203 237.118 14.0377 237.67 13.041C238.222 12.0443 238.989 11.2777 239.97 10.741C240.967 10.2043 242.101 9.936 243.374 9.936C245.015 9.936 246.395 10.3883 247.514 11.293C248.633 12.1823 249.354 13.432 249.676 15.042H244.892C244.616 14.1987 244.079 13.777 243.282 13.777C242.715 13.777 242.262 14.0147 241.925 14.49C241.603 14.95 241.442 15.6323 241.442 16.537C241.442 17.4417 241.603 18.1317 241.925 18.607C242.262 19.0823 242.715 19.32 243.282 19.32C244.095 19.32 244.631 18.8983 244.892 18.055H249.676C249.354 19.6497 248.633 20.8993 247.514 21.804C246.395 22.7087 245.015 23.161 243.374 23.161C242.101 23.161 240.967 22.8927 239.97 22.356C238.989 21.8193 238.222 21.0527 237.67 20.056C237.118 19.0593 236.842 17.8863 236.842 16.537Z" fill="black"/>
<path fill-rule="evenodd" clip-rule="evenodd" d="M59.4017 7.8802L63.3711 15.0255C64.2612 16.6276 64.7332 18.4782 64.7333 20.3693V27.9985C64.7333 29.2023 63.8693 30.181 62.8017 30.181H56.8683C56.617 33.4365 54.2307 36 51.2878 36C48.3448 36 45.9563 33.4365 45.7073 30.181H32.008L36.2917 19.7701L36.2918 19.77C36.2977 19.7554 36.3071 19.7479 36.314 19.7448C36.4788 19.6704 36.6146 19.6197 36.7235 19.5861L39.1034 25.4051L39.1035 25.4052C39.3969 26.1224 39.952 26.7039 40.6599 27.0269C41.3539 27.3436 42.1538 27.5929 42.9451 27.494C43.8931 27.3756 44.5981 26.7889 44.9437 25.9489L50.5537 12.3148L52.08 16.7887C52.3475 17.5727 53.2 17.9915 53.984 17.724C54.7681 17.4565 55.1868 16.6041 54.9193 15.82L52.5822 8.96936C52.1338 7.65511 50.8333 7.21225 49.8447 7.05573C49.3533 6.97793 48.8505 7.02246 48.3804 7.18543L48.3802 7.18547L41.9316 9.42067C41.1488 9.69198 40.7342 10.5465 41.0055 11.3292C41.2768 12.1119 42.1313 12.5265 42.914 12.2552L48.0695 10.4683L43.0598 22.6433L41.8801 24.2693L39.3586 18.1042C39.0152 17.2645 38.3131 16.6759 37.3664 16.5534C36.5754 16.451 35.7746 16.6968 35.0794 17.0106C34.3698 17.3311 33.8124 17.9113 33.5173 18.6287L28.7639 30.181H26.4212C26.1722 33.4365 23.7836 36 20.8407 36C17.8978 36 15.5092 33.4365 15.2602 30.181H6.92955C5.86403 30.181 5 29.2023 5 27.9985V22.4098C5 19.9726 6.48563 17.856 8.58609 17.3049L21.1655 14.0102L26.4407 7.92547C28.6192 5.41459 31.5989 4 34.7064 4H53.1932C55.7139 4 58.0591 5.46487 59.4017 7.8802ZM43.0597 22.6436L50.5537 12.3148L43.0598 22.6433L43.0597 22.6436ZM43.0597 22.6436L41.8802 24.2694C41.8867 24.2852 41.8972 24.294 41.9053 24.2977C42.0693 24.3725 42.2045 24.4237 42.3132 24.4578L43.0597 22.6436Z" fill="url(#paint0_linear_3_33)"/>
<path d="M83.224 28.424L81.12 34H80.28L78.176 28.424H78.952L80.704 33.232L82.456 28.424H83.224ZM84.3983 28.904C84.2596 28.904 84.1423 28.856 84.0463 28.76C83.9503 28.664 83.9023 28.5467 83.9023 28.408C83.9023 28.2693 83.9503 28.152 84.0463 28.056C84.1423 27.96 84.2596 27.912 84.3983 27.912C84.5316 27.912 84.6436 27.96 84.7343 28.056C84.8303 28.152 84.8783 28.2693 84.8783 28.408C84.8783 28.5467 84.8303 28.664 84.7343 28.76C84.6436 28.856 84.5316 28.904 84.3983 28.904ZM84.7503 29.616V34H84.0223V29.616H84.7503ZM85.719 31.792C85.719 31.344 85.8097 30.952 85.991 30.616C86.1723 30.2747 86.4203 30.0107 86.735 29.824C87.055 29.6373 87.4097 29.544 87.799 29.544C88.183 29.544 88.5163 29.6267 88.799 29.792C89.0817 29.9573 89.2923 30.1653 89.431 30.416V29.616H90.167V34H89.431V33.184C89.287 33.44 89.071 33.6533 88.783 33.824C88.5003 33.9893 88.1697 34.072 87.791 34.072C87.4017 34.072 87.0497 33.976 86.735 33.784C86.4203 33.592 86.1723 33.3227 85.991 32.976C85.8097 32.6293 85.719 32.2347 85.719 31.792ZM89.431 31.8C89.431 31.4693 89.3643 31.1813 89.231 30.936C89.0977 30.6907 88.9163 30.504 88.687 30.376C88.463 30.2427 88.215 30.176 87.943 30.176C87.671 30.176 87.423 30.24 87.199 30.368C86.975 30.496 86.7963 30.6827 86.663 30.928C86.5297 31.1733 86.463 31.4613 86.463 31.792C86.463 32.128 86.5297 32.4213 86.663 32.672C86.7963 32.9173 86.975 33.1067 87.199 33.24C87.423 33.368 87.671 33.432 87.943 33.432C88.215 33.432 88.463 33.368 88.687 33.24C88.9163 33.1067 89.0977 32.9173 89.231 32.672C89.3643 32.4213 89.431 32.1307 89.431 31.8ZM93.2053 29.544C93.5839 29.544 93.9146 29.6267 94.1973 29.792C94.4853 29.9573 94.6986 30.1653 94.8373 30.416V29.616H95.5733V34.096C95.5733 34.496 95.4879 34.8507 95.3173 35.16C95.1466 35.4747 94.9013 35.72 94.5813 35.896C94.2666 36.072 93.8986 36.16 93.4773 36.16C92.9013 36.16 92.4213 36.024 92.0373 35.752C91.6533 35.48 91.4266 35.1093 91.3573 34.64H92.0773C92.1573 34.9067 92.3226 35.12 92.5733 35.28C92.8239 35.4453 93.1253 35.528 93.4773 35.528C93.8773 35.528 94.2026 35.4027 94.4533 35.152C94.7093 34.9013 94.8373 34.5493 94.8373 34.096V33.176C94.6933 33.432 94.4799 33.6453 94.1973 33.816C93.9146 33.9867 93.5839 34.072 93.2053 34.072C92.8159 34.072 92.4613 33.976 92.1413 33.784C91.8266 33.592 91.5786 33.3227 91.3973 32.976C91.2159 32.6293 91.1253 32.2347 91.1253 31.792C91.1253 31.344 91.2159 30.952 91.3973 30.616C91.5786 30.2747 91.8266 30.0107 92.1413 29.824C92.4613 29.6373 92.8159 29.544 93.2053 29.544ZM94.8373 31.8C94.8373 31.4693 94.7706 31.1813 94.6373 30.936C94.5039 30.6907 94.3226 30.504 94.0933 30.376C93.8693 30.2427 93.6213 30.176 93.3493 30.176C93.0773 30.176 92.8293 30.24 92.6053 30.368C92.3813 30.496 92.2026 30.6827 92.0693 30.928C91.9359 31.1733 91.8693 31.4613 91.8693 31.792C91.8693 32.128 91.9359 32.4213 92.0693 32.672C92.2026 32.9173 92.3813 33.1067 92.6053 33.24C92.8293 33.368 93.0773 33.432 93.3493 33.432C93.6213 33.432 93.8693 33.368 94.0933 33.24C94.3226 33.1067 94.5039 32.9173 94.6373 32.672C94.7706 32.4213 94.8373 32.1307 94.8373 31.8ZM98.6115 29.544C98.9902 29.544 99.3208 29.6267 99.6035 29.792C99.8915 29.9573 100.105 30.1653 100.244 30.416V29.616H100.98V34.096C100.98 34.496 100.894 34.8507 100.724 35.16C100.553 35.4747 100.308 35.72 99.9875 35.896C99.6728 36.072 99.3048 36.16 98.8835 36.16C98.3075 36.16 97.8275 36.024 97.4435 35.752C97.0595 35.48 96.8328 35.1093 96.7635 34.64H97.4835C97.5635 34.9067 97.7288 35.12 97.9795 35.28C98.2302 35.4453 98.5315 35.528 98.8835 35.528C99.2835 35.528 99.6088 35.4027 99.8595 35.152C100.116 34.9013 100.244 34.5493 100.244 34.096V33.176C100.1 33.432 99.8862 33.6453 99.6035 33.816C99.3208 33.9867 98.9902 34.072 98.6115 34.072C98.2222 34.072 97.8675 33.976 97.5475 33.784C97.2328 33.592 96.9848 33.3227 96.8035 32.976C96.6222 32.6293 96.5315 32.2347 96.5315 31.792C96.5315 31.344 96.6222 30.952 96.8035 30.616C96.9848 30.2747 97.2328 30.0107 97.5475 29.824C97.8675 29.6373 98.2222 29.544 98.6115 29.544ZM100.244 31.8C100.244 31.4693 100.177 31.1813 100.044 30.936C99.9102 30.6907 99.7288 30.504 99.4995 30.376C99.2755 30.2427 99.0275 30.176 98.7555 30.176C98.4835 30.176 98.2355 30.24 98.0115 30.368C97.7875 30.496 97.6088 30.6827 97.4755 30.928C97.3422 31.1733 97.2755 31.4613 97.2755 31.792C97.2755 32.128 97.3422 32.4213 97.4755 32.672C97.6088 32.9173 97.7875 33.1067 98.0115 33.24C98.2355 33.368 98.4835 33.432 98.7555 33.432C99.0275 33.432 99.2755 33.368 99.4995 33.24C99.7288 33.1067 99.9102 32.9173 100.044 32.672C100.177 32.4213 100.244 32.1307 100.244 31.8ZM102.586 28.904C102.447 28.904 102.33 28.856 102.234 28.76C102.138 28.664 102.09 28.5467 102.09 28.408C102.09 28.2693 102.138 28.152 102.234 28.056C102.33 27.96 102.447 27.912 102.586 27.912C102.719 27.912 102.831 27.96 102.922 28.056C103.018 28.152 103.066 28.2693 103.066 28.408C103.066 28.5467 103.018 28.664 102.922 28.76C102.831 28.856 102.719 28.904 102.586 28.904ZM102.938 29.616V34H102.21V29.616H102.938ZM103.907 31.792C103.907 31.344 103.997 30.952 104.179 30.616C104.36 30.2747 104.608 30.0107 104.923 29.824C105.243 29.6373 105.597 29.544 105.987 29.544C106.371 29.544 106.704 29.6267 106.987 29.792C107.269 29.9573 107.48 30.1653 107.619 30.416V29.616H108.355V34H107.619V33.184C107.475 33.44 107.259 33.6533 106.971 33.824C106.688 33.9893 106.357 34.072 105.979 34.072C105.589 34.072 105.237 33.976 104.923 33.784C104.608 33.592 104.36 33.3227 104.179 32.976C103.997 32.6293 103.907 32.2347 103.907 31.792ZM107.619 31.8C107.619 31.4693 107.552 31.1813 107.419 30.936C107.285 30.6907 107.104 30.504 106.875 30.376C106.651 30.2427 106.403 30.176 106.131 30.176C105.859 30.176 105.611 30.24 105.387 30.368C105.163 30.496 104.984 30.6827 104.851 30.928C104.717 31.1733 104.651 31.4613 104.651 31.792C104.651 32.128 104.717 32.4213 104.851 32.672C104.984 32.9173 105.163 33.1067 105.387 33.24C105.611 33.368 105.859 33.432 106.131 33.432C106.403 33.432 106.651 33.368 106.875 33.24C107.104 33.1067 107.285 32.9173 107.419 32.672C107.552 32.4213 107.619 32.1307 107.619 31.8ZM110.313 30.328C110.441 30.0773 110.622 29.8827 110.857 29.744C111.097 29.6053 111.387 29.536 111.729 29.536V30.288H111.537C110.721 30.288 110.313 30.7307 110.313 31.616V34H109.585V29.616H110.313V30.328ZM116.569 31.64C116.569 31.7787 116.561 31.9253 116.545 32.08H113.041C113.068 32.512 113.214 32.8507 113.481 33.096C113.753 33.336 114.081 33.456 114.465 33.456C114.78 33.456 115.041 33.384 115.249 33.24C115.462 33.0907 115.612 32.8933 115.697 32.648H116.481C116.364 33.0693 116.129 33.4133 115.777 33.68C115.425 33.9413 114.988 34.072 114.465 34.072C114.049 34.072 113.676 33.9787 113.345 33.792C113.02 33.6053 112.764 33.3413 112.577 33C112.39 32.6533 112.297 32.2533 112.297 31.8C112.297 31.3467 112.388 30.9493 112.569 30.608C112.75 30.2667 113.004 30.0053 113.329 29.824C113.66 29.6373 114.038 29.544 114.465 29.544C114.881 29.544 115.249 29.6347 115.569 29.816C115.889 29.9973 116.134 30.248 116.305 30.568C116.481 30.8827 116.569 31.24 116.569 31.64ZM115.817 31.488C115.817 31.2107 115.756 30.9733 115.633 30.776C115.51 30.5733 115.342 30.4213 115.129 30.32C114.921 30.2133 114.689 30.16 114.433 30.16C114.065 30.16 113.75 30.2773 113.489 30.512C113.233 30.7467 113.086 31.072 113.049 31.488H115.817ZM120.039 28.904C119.9 28.904 119.783 28.856 119.687 28.76C119.591 28.664 119.543 28.5467 119.543 28.408C119.543 28.2693 119.591 28.152 119.687 28.056C119.783 27.96 119.9 27.912 120.039 27.912C120.172 27.912 120.284 27.96 120.375 28.056C120.471 28.152 120.519 28.2693 120.519 28.408C120.519 28.5467 120.471 28.664 120.375 28.76C120.284 28.856 120.172 28.904 120.039 28.904ZM120.391 29.616V34H119.663V29.616H120.391ZM123.768 29.536C124.301 29.536 124.733 29.6987 125.064 30.024C125.394 30.344 125.56 30.808 125.56 31.416V34H124.84V31.52C124.84 31.0827 124.73 30.7493 124.512 30.52C124.293 30.2853 123.994 30.168 123.616 30.168C123.232 30.168 122.925 30.288 122.696 30.528C122.472 30.768 122.36 31.1173 122.36 31.576V34H121.632V29.616H122.36V30.24C122.504 30.016 122.698 29.8427 122.944 29.72C123.194 29.5973 123.469 29.536 123.768 29.536ZM132.314 28.424V29.016H130.794V34H130.066V29.016H128.538V28.424H132.314ZM133.938 30.328C134.066 30.0773 134.247 29.8827 134.482 29.744C134.722 29.6053 135.012 29.536 135.354 29.536V30.288H135.162C134.346 30.288 133.938 30.7307 133.938 31.616V34H133.21V29.616H133.938V30.328ZM140.194 31.64C140.194 31.7787 140.186 31.9253 140.17 32.08H136.666C136.693 32.512 136.839 32.8507 137.106 33.096C137.378 33.336 137.706 33.456 138.09 33.456C138.405 33.456 138.666 33.384 138.874 33.24C139.087 33.0907 139.237 32.8933 139.322 32.648H140.106C139.989 33.0693 139.754 33.4133 139.402 33.68C139.05 33.9413 138.613 34.072 138.09 34.072C137.674 34.072 137.301 33.9787 136.97 33.792C136.645 33.6053 136.389 33.3413 136.202 33C136.015 32.6533 135.922 32.2533 135.922 31.8C135.922 31.3467 136.013 30.9493 136.194 30.608C136.375 30.2667 136.629 30.0053 136.954 29.824C137.285 29.6373 137.663 29.544 138.09 29.544C138.506 29.544 138.874 29.6347 139.194 29.816C139.514 29.9973 139.759 30.248 139.93 30.568C140.106 30.8827 140.194 31.24 140.194 31.64ZM139.442 31.488C139.442 31.2107 139.381 30.9733 139.258 30.776C139.135 30.5733 138.967 30.4213 138.754 30.32C138.546 30.2133 138.314 30.16 138.058 30.16C137.69 30.16 137.375 30.2773 137.114 30.512C136.858 30.7467 136.711 31.072 136.674 31.488H139.442ZM143.291 29.536C143.824 29.536 144.256 29.6987 144.587 30.024C144.918 30.344 145.083 30.808 145.083 31.416V34H144.363V31.52C144.363 31.0827 144.254 30.7493 144.035 30.52C143.816 30.2853 143.518 30.168 143.139 30.168C142.755 30.168 142.448 30.288 142.219 30.528C141.995 30.768 141.883 31.1173 141.883 31.576V34H141.155V29.616H141.883V30.24C142.027 30.016 142.222 29.8427 142.467 29.72C142.718 29.5973 142.992 29.536 143.291 29.536ZM147.16 30.216V32.8C147.16 33.0133 147.206 33.1653 147.296 33.256C147.387 33.3413 147.544 33.384 147.768 33.384H148.304V34H147.648C147.243 34 146.939 33.9067 146.736 33.72C146.534 33.5333 146.432 33.2267 146.432 32.8V30.216H145.864V29.616H146.432V28.512H147.16V29.616H148.304V30.216H147.16ZM149.562 28.904C149.424 28.904 149.306 28.856 149.21 28.76C149.114 28.664 149.066 28.5467 149.066 28.408C149.066 28.2693 149.114 28.152 149.21 28.056C149.306 27.96 149.424 27.912 149.562 27.912C149.696 27.912 149.808 27.96 149.898 28.056C149.994 28.152 150.042 28.2693 150.042 28.408C150.042 28.5467 149.994 28.664 149.898 28.76C149.808 28.856 149.696 28.904 149.562 28.904ZM149.914 29.616V34H149.186V29.616H149.914ZM153.291 29.536C153.824 29.536 154.256 29.6987 154.587 30.024C154.918 30.344 155.083 30.808 155.083 31.416V34H154.363V31.52C154.363 31.0827 154.254 30.7493 154.035 30.52C153.816 30.2853 153.518 30.168 153.139 30.168C152.755 30.168 152.448 30.288 152.219 30.528C151.995 30.768 151.883 31.1173 151.883 31.576V34H151.155V29.616H151.883V30.24C152.027 30.016 152.222 29.8427 152.467 29.72C152.718 29.5973 152.992 29.536 153.291 29.536ZM158.184 34.072C157.774 34.072 157.4 33.9787 157.064 33.792C156.734 33.6053 156.472 33.3413 156.28 33C156.094 32.6533 156 32.2533 156 31.8C156 31.352 156.096 30.9573 156.288 30.616C156.486 30.2693 156.752 30.0053 157.088 29.824C157.424 29.6373 157.8 29.544 158.216 29.544C158.632 29.544 159.008 29.6373 159.344 29.824C159.68 30.0053 159.944 30.2667 160.136 30.608C160.334 30.9493 160.432 31.3467 160.432 31.8C160.432 32.2533 160.331 32.6533 160.128 33C159.931 33.3413 159.662 33.6053 159.32 33.792C158.979 33.9787 158.6 34.072 158.184 34.072ZM158.184 33.432C158.446 33.432 158.691 33.3707 158.92 33.248C159.15 33.1253 159.334 32.9413 159.472 32.696C159.616 32.4507 159.688 32.152 159.688 31.8C159.688 31.448 159.619 31.1493 159.48 30.904C159.342 30.6587 159.16 30.4773 158.936 30.36C158.712 30.2373 158.47 30.176 158.208 30.176C157.942 30.176 157.696 30.2373 157.472 30.36C157.254 30.4773 157.078 30.6587 156.944 30.904C156.811 31.1493 156.744 31.448 156.744 31.8C156.744 32.1573 156.808 32.4587 156.936 32.704C157.07 32.9493 157.246 33.1333 157.464 33.256C157.683 33.3733 157.923 33.432 158.184 33.432ZM161.501 28.424H162.309L161.541 30.24H161.029L161.501 28.424ZM164.691 34.072C164.355 34.072 164.054 34.016 163.787 33.904C163.521 33.7867 163.31 33.6267 163.155 33.424C163.001 33.216 162.915 32.9787 162.899 32.712H163.651C163.673 32.9307 163.774 33.1093 163.955 33.248C164.142 33.3867 164.385 33.456 164.683 33.456C164.961 33.456 165.179 33.3947 165.339 33.272C165.499 33.1493 165.579 32.9947 165.579 32.808C165.579 32.616 165.494 32.4747 165.323 32.384C165.153 32.288 164.889 32.1947 164.531 32.104C164.206 32.0187 163.939 31.9333 163.731 31.848C163.529 31.7573 163.353 31.6267 163.203 31.456C163.059 31.28 162.987 31.0507 162.987 30.768C162.987 30.544 163.054 30.3387 163.187 30.152C163.321 29.9653 163.51 29.8187 163.755 29.712C164.001 29.6 164.281 29.544 164.595 29.544C165.081 29.544 165.473 29.6667 165.771 29.912C166.07 30.1573 166.23 30.4933 166.251 30.92H165.523C165.507 30.6907 165.414 30.5067 165.243 30.368C165.078 30.2293 164.854 30.16 164.571 30.16C164.31 30.16 164.102 30.216 163.947 30.328C163.793 30.44 163.715 30.5867 163.715 30.768C163.715 30.912 163.761 31.032 163.851 31.128C163.947 31.2187 164.065 31.2933 164.203 31.352C164.347 31.4053 164.545 31.4667 164.795 31.536C165.11 31.6213 165.366 31.7067 165.563 31.792C165.761 31.872 165.929 31.9947 166.067 32.16C166.211 32.3253 166.286 32.5413 166.291 32.808C166.291 33.048 166.225 33.264 166.091 33.456C165.958 33.648 165.769 33.8 165.523 33.912C165.283 34.0187 165.006 34.072 164.691 34.072ZM176.46 28.424L174.844 34H174.028L172.732 29.512L171.388 34L170.58 34.008L169.02 28.424H169.796L171.012 33.152L172.356 28.424H173.172L174.452 33.136L175.676 28.424H176.46ZM181.257 31.64C181.257 31.7787 181.249 31.9253 181.233 32.08H177.729C177.755 32.512 177.902 32.8507 178.169 33.096C178.441 33.336 178.769 33.456 179.153 33.456C179.467 33.456 179.729 33.384 179.937 33.24C180.15 33.0907 180.299 32.8933 180.385 32.648H181.169C181.051 33.0693 180.817 33.4133 180.465 33.68C180.113 33.9413 179.675 34.072 179.153 34.072C178.737 34.072 178.363 33.9787 178.033 33.792C177.707 33.6053 177.451 33.3413 177.265 33C177.078 32.6533 176.985 32.2533 176.985 31.8C176.985 31.3467 177.075 30.9493 177.257 30.608C177.438 30.2667 177.691 30.0053 178.017 29.824C178.347 29.6373 178.726 29.544 179.153 29.544C179.569 29.544 179.937 29.6347 180.257 29.816C180.577 29.9973 180.822 30.248 180.993 30.568C181.169 30.8827 181.257 31.24 181.257 31.64ZM180.505 31.488C180.505 31.2107 180.443 30.9733 180.321 30.776C180.198 30.5733 180.03 30.4213 179.817 30.32C179.609 30.2133 179.377 30.16 179.121 30.16C178.753 30.16 178.438 30.2773 178.177 30.512C177.921 30.7467 177.774 31.072 177.737 31.488H180.505ZM182.946 30.432C183.095 30.1707 183.314 29.9573 183.602 29.792C183.89 29.6267 184.218 29.544 184.586 29.544C184.98 29.544 185.335 29.6373 185.65 29.824C185.964 30.0107 186.212 30.2747 186.394 30.616C186.575 30.952 186.666 31.344 186.666 31.792C186.666 32.2347 186.575 32.6293 186.394 32.976C186.212 33.3227 185.962 33.592 185.642 33.784C185.327 33.976 184.975 34.072 184.586 34.072C184.207 34.072 183.874 33.9893 183.586 33.824C183.303 33.6587 183.09 33.448 182.946 33.192V34H182.218V28.08H182.946V30.432ZM185.922 31.792C185.922 31.4613 185.855 31.1733 185.722 30.928C185.588 30.6827 185.407 30.496 185.178 30.368C184.954 30.24 184.706 30.176 184.434 30.176C184.167 30.176 183.919 30.2427 183.69 30.376C183.466 30.504 183.284 30.6933 183.146 30.944C183.012 31.1893 182.946 31.4747 182.946 31.8C182.946 32.1307 183.012 32.4213 183.146 32.672C183.284 32.9173 183.466 33.1067 183.69 33.24C183.919 33.368 184.167 33.432 184.434 33.432C184.706 33.432 184.954 33.368 185.178 33.24C185.407 33.1067 185.588 32.9173 185.722 32.672C185.855 32.4213 185.922 32.128 185.922 31.792ZM187.352 31.8C187.352 31.3467 187.442 30.952 187.624 30.616C187.805 30.2747 188.056 30.0107 188.376 29.824C188.701 29.6373 189.072 29.544 189.488 29.544C190.026 29.544 190.469 29.6747 190.816 29.936C191.168 30.1973 191.4 30.56 191.512 31.024H190.728C190.653 30.7573 190.506 30.5467 190.288 30.392C190.074 30.2373 189.808 30.16 189.488 30.16C189.072 30.16 188.736 30.304 188.48 30.592C188.224 30.8747 188.096 31.2773 188.096 31.8C188.096 32.328 188.224 32.736 188.48 33.024C188.736 33.312 189.072 33.456 189.488 33.456C189.808 33.456 190.074 33.3813 190.288 33.232C190.501 33.0827 190.648 32.8693 190.728 32.592H191.512C191.394 33.04 191.16 33.4 190.808 33.672C190.456 33.9387 190.016 34.072 189.488 34.072C189.072 34.072 188.701 33.9787 188.376 33.792C188.056 33.6053 187.805 33.3413 187.624 33C187.442 32.6587 187.352 32.2587 187.352 31.8ZM192.211 31.792C192.211 31.344 192.302 30.952 192.483 30.616C192.665 30.2747 192.913 30.0107 193.227 29.824C193.547 29.6373 193.902 29.544 194.291 29.544C194.675 29.544 195.009 29.6267 195.291 29.792C195.574 29.9573 195.785 30.1653 195.923 30.416V29.616H196.659V34H195.923V33.184C195.779 33.44 195.563 33.6533 195.275 33.824C194.993 33.9893 194.662 34.072 194.283 34.072C193.894 34.072 193.542 33.976 193.227 33.784C192.913 33.592 192.665 33.3227 192.483 32.976C192.302 32.6293 192.211 32.2347 192.211 31.792ZM195.923 31.8C195.923 31.4693 195.857 31.1813 195.723 30.936C195.59 30.6907 195.409 30.504 195.179 30.376C194.955 30.2427 194.707 30.176 194.435 30.176C194.163 30.176 193.915 30.24 193.691 30.368C193.467 30.496 193.289 30.6827 193.155 30.928C193.022 31.1733 192.955 31.4613 192.955 31.792C192.955 32.128 193.022 32.4213 193.155 32.672C193.289 32.9173 193.467 33.1067 193.691 33.24C193.915 33.368 194.163 33.432 194.435 33.432C194.707 33.432 194.955 33.368 195.179 33.24C195.409 33.1067 195.59 32.9173 195.723 32.672C195.857 32.4213 195.923 32.1307 195.923 31.8ZM203.161 29.536C203.503 29.536 203.807 29.608 204.073 29.752C204.34 29.8907 204.551 30.1013 204.705 30.384C204.86 30.6667 204.937 31.0107 204.937 31.416V34H204.217V31.52C204.217 31.0827 204.108 30.7493 203.889 30.52C203.676 30.2853 203.385 30.168 203.017 30.168C202.639 30.168 202.337 30.2907 202.113 30.536C201.889 30.776 201.777 31.1253 201.777 31.584V34H201.057V31.52C201.057 31.0827 200.948 30.7493 200.729 30.52C200.516 30.2853 200.225 30.168 199.857 30.168C199.479 30.168 199.177 30.2907 198.953 30.536C198.729 30.776 198.617 31.1253 198.617 31.584V34H197.889V29.616H198.617V30.248C198.761 30.0187 198.953 29.8427 199.193 29.72C199.439 29.5973 199.708 29.536 200.001 29.536C200.369 29.536 200.695 29.6187 200.977 29.784C201.26 29.9493 201.471 30.192 201.609 30.512C201.732 30.2027 201.935 29.9627 202.217 29.792C202.5 29.6213 202.815 29.536 203.161 29.536ZM207.684 34.072C207.348 34.072 207.046 34.016 206.78 33.904C206.513 33.7867 206.302 33.6267 206.148 33.424C205.993 33.216 205.908 32.9787 205.892 32.712H206.644C206.665 32.9307 206.766 33.1093 206.948 33.248C207.134 33.3867 207.377 33.456 207.676 33.456C207.953 33.456 208.172 33.3947 208.332 33.272C208.492 33.1493 208.572 32.9947 208.572 32.808C208.572 32.616 208.486 32.4747 208.316 32.384C208.145 32.288 207.881 32.1947 207.524 32.104C207.198 32.0187 206.932 31.9333 206.724 31.848C206.521 31.7573 206.345 31.6267 206.196 31.456C206.052 31.28 205.98 31.0507 205.98 30.768C205.98 30.544 206.046 30.3387 206.18 30.152C206.313 29.9653 206.502 29.8187 206.748 29.712C206.993 29.6 207.273 29.544 207.588 29.544C208.073 29.544 208.465 29.6667 208.764 29.912C209.062 30.1573 209.222 30.4933 209.244 30.92H208.516C208.5 30.6907 208.406 30.5067 208.236 30.368C208.07 30.2293 207.846 30.16 207.564 30.16C207.302 30.16 207.094 30.216 206.94 30.328C206.785 30.44 206.708 30.5867 206.708 30.768C206.708 30.912 206.753 31.032 206.844 31.128C206.94 31.2187 207.057 31.2933 207.196 31.352C207.34 31.4053 207.537 31.4667 207.788 31.536C208.102 31.6213 208.358 31.7067 208.556 31.792C208.753 31.872 208.921 31.9947 209.06 32.16C209.204 32.3253 209.278 32.5413 209.284 32.808C209.284 33.048 209.217 33.264 209.084 33.456C208.95 33.648 208.761 33.8 208.516 33.912C208.276 34.0187 207.998 34.072 207.684 34.072ZM215.74 32.76H213.308L212.86 34H212.092L214.108 28.456H214.948L216.956 34H216.188L215.74 32.76ZM215.532 32.168L214.524 29.352L213.516 32.168H215.532ZM219.971 29.536C220.504 29.536 220.936 29.6987 221.267 30.024C221.597 30.344 221.763 30.808 221.763 31.416V34H221.043V31.52C221.043 31.0827 220.933 30.7493 220.715 30.52C220.496 30.2853 220.197 30.168 219.819 30.168C219.435 30.168 219.128 30.288 218.899 30.528C218.675 30.768 218.563 31.1173 218.563 31.576V34H217.835V29.616H218.563V30.24C218.707 30.016 218.901 29.8427 219.147 29.72C219.397 29.5973 219.672 29.536 219.971 29.536ZM222.68 31.792C222.68 31.344 222.771 30.952 222.952 30.616C223.133 30.2747 223.381 30.0107 223.696 29.824C224.016 29.6373 224.371 29.544 224.76 29.544C225.144 29.544 225.477 29.6267 225.76 29.792C226.043 29.9573 226.253 30.1653 226.392 30.416V29.616H227.128V34H226.392V33.184C226.248 33.44 226.032 33.6533 225.744 33.824C225.461 33.9893 225.131 34.072 224.752 34.072C224.363 34.072 224.011 33.976 223.696 33.784C223.381 33.592 223.133 33.3227 222.952 32.976C222.771 32.6293 222.68 32.2347 222.68 31.792ZM226.392 31.8C226.392 31.4693 226.325 31.1813 226.192 30.936C226.059 30.6907 225.877 30.504 225.648 30.376C225.424 30.2427 225.176 30.176 224.904 30.176C224.632 30.176 224.384 30.24 224.16 30.368C223.936 30.496 223.757 30.6827 223.624 30.928C223.491 31.1733 223.424 31.4613 223.424 31.792C223.424 32.128 223.491 32.4213 223.624 32.672C223.757 32.9173 223.936 33.1067 224.16 33.24C224.384 33.368 224.632 33.432 224.904 33.432C225.176 33.432 225.424 33.368 225.648 33.24C225.877 33.1067 226.059 32.9173 226.192 32.672C226.325 32.4213 226.392 32.1307 226.392 31.8ZM229.086 28.08V34H228.358V28.08H229.086ZM234.103 29.616L231.463 36.064H230.711L231.575 33.952L229.807 29.616H230.615L231.991 33.168L233.351 29.616H234.103ZM236.387 34.072C236.051 34.072 235.749 34.016 235.483 33.904C235.216 33.7867 235.005 33.6267 234.851 33.424C234.696 33.216 234.611 32.9787 234.595 32.712H235.347C235.368 32.9307 235.469 33.1093 235.651 33.248C235.837 33.3867 236.08 33.456 236.379 33.456C236.656 33.456 236.875 33.3947 237.035 33.272C237.195 33.1493 237.275 32.9947 237.275 32.808C237.275 32.616 237.189 32.4747 237.019 32.384C236.848 32.288 236.584 32.1947 236.227 32.104C235.901 32.0187 235.635 31.9333 235.427 31.848C235.224 31.7573 235.048 31.6267 234.899 31.456C234.755 31.28 234.683 31.0507 234.683 30.768C234.683 30.544 234.749 30.3387 234.883 30.152C235.016 29.9653 235.205 29.8187 235.451 29.712C235.696 29.6 235.976 29.544 236.291 29.544C236.776 29.544 237.168 29.6667 237.467 29.912C237.765 30.1573 237.925 30.4933 237.947 30.92H237.219C237.203 30.6907 237.109 30.5067 236.939 30.368C236.773 30.2293 236.549 30.16 236.267 30.16C236.005 30.16 235.797 30.216 235.643 30.328C235.488 30.44 235.411 30.5867 235.411 30.768C235.411 30.912 235.456 31.032 235.547 31.128C235.643 31.2187 235.76 31.2933 235.899 31.352C236.043 31.4053 236.24 31.4667 236.491 31.536C236.805 31.6213 237.061 31.7067 237.259 31.792C237.456 31.872 237.624 31.9947 237.763 32.16C237.907 32.3253 237.981 32.5413 237.987 32.808C237.987 33.048 237.92 33.264 237.787 33.456C237.653 33.648 237.464 33.8 237.219 33.912C236.979 34.0187 236.701 34.072 236.387 34.072ZM239.39 28.904C239.252 28.904 239.134 28.856 239.038 28.76C238.942 28.664 238.894 28.5467 238.894 28.408C238.894 28.2693 238.942 28.152 239.038 28.056C239.134 27.96 239.252 27.912 239.39 27.912C239.524 27.912 239.636 27.96 239.726 28.056C239.822 28.152 239.87 28.2693 239.87 28.408C239.87 28.5467 239.822 28.664 239.726 28.76C239.636 28.856 239.524 28.904 239.39 28.904ZM239.742 29.616V34H239.014V29.616H239.742ZM242.535 34.072C242.199 34.072 241.898 34.016 241.631 33.904C241.365 33.7867 241.154 33.6267 240.999 33.424C240.845 33.216 240.759 32.9787 240.743 32.712H241.495C241.517 32.9307 241.618 33.1093 241.799 33.248C241.986 33.3867 242.229 33.456 242.527 33.456C242.805 33.456 243.023 33.3947 243.183 33.272C243.343 33.1493 243.423 32.9947 243.423 32.808C243.423 32.616 243.338 32.4747 243.167 32.384C242.997 32.288 242.733 32.1947 242.375 32.104C242.05 32.0187 241.783 31.9333 241.575 31.848C241.373 31.7573 241.197 31.6267 241.047 31.456C240.903 31.28 240.831 31.0507 240.831 30.768C240.831 30.544 240.898 30.3387 241.031 30.152C241.165 29.9653 241.354 29.8187 241.599 29.712C241.845 29.6 242.125 29.544 242.439 29.544C242.925 29.544 243.317 29.6667 243.615 29.912C243.914 30.1573 244.074 30.4933 244.095 30.92H243.367C243.351 30.6907 243.258 30.5067 243.087 30.368C242.922 30.2293 242.698 30.16 242.415 30.16C242.154 30.16 241.946 30.216 241.791 30.328C241.637 30.44 241.559 30.5867 241.559 30.768C241.559 30.912 241.605 31.032 241.695 31.128C241.791 31.2187 241.909 31.2933 242.047 31.352C242.191 31.4053 242.389 31.4667 242.639 31.536C242.954 31.6213 243.21 31.7067 243.407 31.792C243.605 31.872 243.773 31.9947 243.911 32.16C244.055 32.3253 244.13 32.5413 244.135 32.808C244.135 33.048 244.069 33.264 243.935 33.456C243.802 33.648 243.613 33.8 243.367 33.912C243.127 34.0187 242.85 34.072 242.535 34.072Z" fill="black"/>
<defs>
<linearGradient id="paint0_linear_3_33" x1="14.6" y1="5.06667" x2="68.4667" y2="36" gradientUnits="userSpaceOnUse">
<stop stop-color="#FFB802"/>
<stop offset="1" stop-color="#FF7A00"/>
</linearGradient>
</defs>
</svg>
